<svg xmlns="http://www.w3.org/2000/svg" xmlns:xlink="http://www.w3.org/1999/xlink" width="1080" height="1080" viewBox="0 0 1080 1080">
  <defs>
    <style>
      .cls-1 {
        filter: url(#filter);
      }

      .cls-2 {
        fill: #f26628;
      }

      .cls-2, .cls-3, .cls-4, .cls-5, .cls-6, .cls-7, .cls-8, .cls-9 {
        fill-rule: evenodd;
      }

      .cls-3, .cls-5 {
        fill: #142b3b;
      }

      .cls-3, .cls-6, .cls-7 {
        stroke: #000;
        stroke-width: 1px;
      }

      .cls-4, .cls-7 {
        fill: #305d7a;
      }

      .cls-6, .cls-8 {
        fill: #22485f;
      }

      .cls-9 {
        fill: #f1a068;
      }
    </style>
    <filter id="filter" filterUnits="userSpaceOnUse">
      <feFlood result="flood" flood-color="#f1f1f1"/>
      <feComposite result="composite" operator="in" in2="SourceGraphic"/>
      <feBlend result="blend" in2="SourceGraphic"/>
    </filter>
  </defs>
  <g id="blue" class="cls-1">
    <path class="cls-2" d="M259.241,619.846s29.28-76.944,61.37-117.262c0,0-11.618,102.1-7.671,123.838,0,0,27.446-24.151,43.836-28.494,0,0-17.954,29.4-24.11,43.836,0,0,114.714,1.526,124.934-3.287,0,0-102.08,44.61-133.7,53.7,0,0,8.339,24.985,16.439,33.973,0,0-28.774-1.544-41.645-15.342,0,0-13.4,56.366-17.534,107.4,0,0-26.552-69.663-30.685-110.686,0,0-21.073,12.53-28.494,17.534,0,0,3.084-30.455,11.005-39.7,0,0-47.42-15.719-96.485-57.838,0,0,77.871,19.009,98.943,8.671,0,0-3.85-24.635-1.408-44.836C234.035,591.353,252.665,615.463,259.241,619.846Z"/>
    <g id="lLeg">
      <path class="cls-3" d="M321.486,751.732S429.105,1051.76,749.242,912.755c0,0-136.114,68.417-251.983-71.293C431.425,762.082,351.592,776.1,321.486,751.732Z"/>
      <path class="cls-4" d="M391.55,756.649s91.6,75.492,202.815,34.417c0,0-90.454,14.85-147.5-28.271C426.507,747.408,405.762,747.609,391.55,756.649Z"/>
      <path class="cls-4" d="M397.7,736.982s17.686-16.137,41.792-8.605c15.443,4.826,31.965,9.5,41.792-1.229C481.28,727.148,440.331,761.518,397.7,736.982Z"/>
      <path class="cls-4" d="M316.569,754.19s9.958,32.043,15.98,39.334,1.177,17.576-15.98,17.209S312.749,768.516,316.569,754.19Z"/>
    </g>
    <g id="lWing">
      <g id="lWing-2" data-name="lWing">
        <path class="cls-5" d="M369.424,627.584c-17.589,4.853,74.524-80.3,254.442-89.73,77.735-4.076,338.928-75.69,421.614-239.691,0,0-107.052,411.618-562.971,325.734C394.151,607.252,411,616.116,369.424,627.584Z"/>
        <path class="cls-6" d="M411.217,575.959c41.436-58.533,147.8-54.723,207.732-57.772C827.72,507.566,918.87,327.663,918.87,327.663,881.615,402.175,703.81,436.653,654.6,440.748,440.958,458.525,428.545,535.527,411.217,575.959Z"/>
        <path class="cls-7" d="M553.8,439.519s57.03-32.582,125.377-46.709c48.142-9.951,153.863-3.76,180.69-70.063-6.885,25.1-21.929,84.276-190.524,90.959C627.914,415.349,571.725,430.32,553.8,439.519Z"/>
      </g>
      <g id="lShoulder">
        <path class="cls-3" d="M337.465,582.105s17.5-102.264,76.21-148.732c0,0-15.264,49.608-17.209,68.835S367.088,574.49,337.465,582.105Z"/>
        <path class="cls-8" d="M402.612,520.645s1.386-60.584,73.762-98.986c0,0-7.554,11.977-25.05,61.581C447.225,494.861,435.671,510.587,402.612,520.645Z"/>
      </g>
    </g>
    <g id="rWing">
      <path class="cls-4" d="M135.879,617.751S63.41,652.993,53.524,547.687C53.524,547.687,72.572,597.089,135.879,617.751Z"/>
      <path class="cls-8" d="M83.025,460.415S55.141,625.687,181.359,603C181.359,603,106.737,573.028,83.025,460.415Z"/>
      <path class="cls-5" d="M197.339,594.4s-102.617-33.529-61.46-211.419c0,0-8.926,60.618,62.689,120.46C198.568,503.437,236.1,534.994,197.339,594.4Z"/>
      <path class="cls-4" d="M183.818,378.06s76,77.851,49.167,156.106c0,0-11.14-21.772-34.417-46.709C178.186,465.622,165.565,448.9,183.818,378.06Z"/>
    </g>
    <g id="rLeg">
      <path class="cls-3" d="M219.464,761.565s-75.843,86.151-55.313,210.191c0,0-18.3-43.368,79.9-167.169C244.048,804.587,223.587,786.375,219.464,761.565Z"/>
      <path class="cls-4" d="M214.547,754.19s-70.712,37.285-89.73,73.751c0,0,8.592-56.217,46.709-67.605C188.057,755.4,202.509,756.865,214.547,754.19Z"/>
      <path class="cls-4" d="M212.089,762.8S152.1,801.04,150.63,834.087c0,0,15.671,3.012,35.646-27.042C195.786,792.736,200.432,777.136,212.089,762.8Z"/>
    </g>
    <g id="head">
      <path class="cls-3" d="M264.944,528.02s10.608-75.015,168.4-125.376c0,0,3.4-37.791,54.084-70.064,25.038-15.944,49.942-55.349,51.626-71.292,0,0-88.406,73.384-146.273,46.708-26.588-12.256-47.164-59.036-51.626-65.146,0,0,4.462,63.882-11.063,68.834L317.8,293.246s-15.2,36.84-33.188,46.709-9.834,22.126-9.834,22.126,10.608,13.485,20.9,18.437,104.026-13.556,120.46-25.812c0,0-61.795,51.529-120.46,51.625-21.671.036-23.809-24.619-28.271-27.042s-3.149,19.8,0,40.563C269.086,430.95,239.131,491.145,264.944,528.02Z"/>
      <g>
        <path class="cls-3" d="M460.384,293.246s61.005,8.569,78.668-142.585c0,0-15.205,25.777-33.188,22.125,0,0,3.683-26.229-39.334-38.1-26.588-7.34-60.685-28.307-65.147-51.626,0,0,17,61.252,72.522,79.9,10.725,3.6,22.744,35.716,19.175,50.2-0.745,3.023-1.935,6.512-4.425,6.344-3.447-.231-9.833-23.354-9.833-23.354S490.152,265.937,460.384,293.246Z"/>
        <path class="cls-8" d="M387.862,295.705s30.554,15.526,74.98-14.751c10.6-7.223,11.045-46.112,3.688-54.084,0,0-7.126,40.465-78.668,65.147"/>
        <path class="cls-4" d="M518.156,260.058s28.36,9.629,55.313-68.834c0,0-17.441,30.044-28.271,33.188S524.569,240.819,518.156,260.058Z"/>
        <path class="cls-7" d="M446.863,155.578s-49.88-32.164-99.564-17.209c0,0,17.511,1.719,38.105,14.75C385.4,153.119,420.569,176.741,446.863,155.578Z"/>
        <path class="cls-4" d="M381.716,127.306s-36.413,12.355-74.98,2.459c0,0,17.591-.3,29.5-9.834C341.919,115.38,375.3,106.784,381.716,127.306Z"/>
        <path class="cls-4" d="M379.258,279.725s36.8,5.878,44.25-23.354c4.139-16.24-13.508-10.212-19.666-3.688S401.828,268.44,379.258,279.725Z"/>
      </g>
    </g>
    <g>
      <path class="cls-9" d="M448,403s38.334,8.668,71,52c0,0,66.334-48.332,77-48,0,0-21.32-26.229-26-31s-8.749,2.757-27,19c-0.475.423-4.752,1.063-9-3s-19-17-19-17-0.518-5.349,1-9,19.976-13.692,19-16-24-14-24-14S463.22,364.677,448,403Z"/>
      <path class="cls-9" d="M539,657s-34.627,94.565-57,104c0,0,57.075,14.881,86,3,0,0-17.378-8.683-18-17-0.128-1.706,9-16,9-16s1.165-1.607,5-2,20.674,4.96,23,3,15.437-23.212,17-25,0.168-7.05-2-8-24-9-24-9l7-18a5.275,5.275,0,0,1,4-2c2.713-.12,18.752.327,21-3s5-12,5-12-52.39-.44-61-4S539.955,651.27,539,657Z"/>
      <path class="cls-9" d="M259,814s38.389,20.424,87,18c5.431-.271,10.687,4.379,12,7s22.054,32.411,33,40c3.871,2.684.091,3.375,0,6-0.08,2.326-10,8-10,8s-0.454,2.123-20-19c-4.484-4.846-6-2-6-2s-27.626,1.037-30,0-6.546,1.188-7,6,3.018,16.26,1,19-39.393-.276-43-3-7.78-19.627-4-25,0.686-4.627-2-5-25.044-10.392-26-13-12.627,11.423-13,14-4.9-2.728-8-6S246.583,816.821,259,814Z"/>
      <path class="cls-9" d="M182,675s7.114,53.346,13,59c3.565,3.424,1.218,8.886-7,9s-27.534,2.9-37,10c-3.315,2.488-2.3.8-4-1s-8.409-11.457-7-15,9.228-11.188,11-12,2.919-5.115,1-7-10.377-16.085-12-36c-0.282-3.456-4-1-4-1s-19.509,3.157-22,0-3-38-3-38,0.707-3.168,3-3,19.076-.56,21,1,27.733,20.713,42,27C182.373,670.368,182.3,673.8,182,675Z"/>
      <path class="cls-9" d="M251,361l6,65s-0.235,4.168-1,5-14,14-14,14-2.488,1.766-3,0-12.166-22.361-14-24-3.017-6.028-1-9,10-12,10-12a14.2,14.2,0,0,0,1-8c-0.788-4.351-4.474-20.193,11-30C248.821,360.212,249.218,359.218,251,361Z"/>
    </g>
  </g>
</svg>
