<svg width="24" height="23" viewBox="0 0 24 23" fill="none" xmlns="http://www.w3.org/2000/svg">
<path d="M17.879 14.8698C19.2709 12.9704 19.8943 10.6155 19.6245 8.27617C19.3547 5.93687 18.2116 3.78569 16.4239 2.25302C14.6361 0.72034 12.3356 -0.0808033 9.98253 0.00986431C7.62947 0.100532 5.3974 1.07632 3.7329 2.74202C2.06839 4.40772 1.0942 6.64048 1.00521 8.9936C0.916231 11.3467 1.71902 13.6467 3.25297 15.4333C4.78693 17.22 6.93892 18.3616 9.27842 18.6297C11.6179 18.8978 13.9724 18.2727 15.8708 16.8794H15.8693C15.9124 16.9369 15.9585 16.9915 16.0102 17.0447L21.5446 22.5791C21.8141 22.8488 22.1798 23.0004 22.5611 23.0006C22.9424 23.0007 23.3082 22.8493 23.5779 22.5798C23.8477 22.3103 23.9993 21.9446 23.9994 21.5633C23.9995 21.1819 23.8482 20.8162 23.5786 20.5465L18.0443 15.0121C17.9929 14.9601 17.9376 14.912 17.879 14.8683V14.8698ZM18.2498 9.34402C18.2498 10.3823 18.0453 11.4104 17.648 12.3696C17.2507 13.3288 16.6683 14.2004 15.9341 14.9346C15.2 15.6687 14.3284 16.2511 13.3692 16.6484C12.4099 17.0458 11.3818 17.2503 10.3436 17.2503C9.30531 17.2503 8.27722 17.0458 7.31799 16.6484C6.35875 16.2511 5.48718 15.6687 4.75301 14.9346C4.01885 14.2004 3.43648 13.3288 3.03915 12.3696C2.64183 11.4104 2.43733 10.3823 2.43733 9.34402C2.43733 7.24715 3.2703 5.23616 4.75301 3.75345C6.23572 2.27074 8.24671 1.43777 10.3436 1.43777C12.4404 1.43777 14.4514 2.27074 15.9341 3.75345C17.4168 5.23616 18.2498 7.24715 18.2498 9.34402Z" fill="#F26628"/>
</svg>
